<?xml version="1.0" encoding="utf-8"?>
<!-- Generator: Adobe Illustrator 23.0.5, SVG Export Plug-In . SVG Version: 6.00 Build 0)  -->
<svg version="1.1" id="Capa_1" xmlns="http://www.w3.org/2000/svg" xmlns:xlink="http://www.w3.org/1999/xlink" x="0px" y="0px"
	 viewBox="0 0 1000 768" style="enable-background:new 0 0 1000 768;" xml:space="preserve">
<style type="text/css">
	.st0{enable-background:new    ;}
	.st1{fill:#7F7F7F;}
	.st2{fill:#B3B3B3;}
	.st3{fill:#7B7B7B;}
	.st4{fill:#787878;}
</style>
<g>
	<g>
		<g class="st0">
			<g>
				<polygon class="st1" points="527.89,380.02 505.09,367.62 549.6,361.37 572.39,373.77 				"/>
			</g>
			<g>
				<polygon class="st1" points="616.36,175.03 593.57,162.63 594.02,162.56 616.81,174.96 				"/>
			</g>
			<g>
				<polygon class="st2" points="616.36,175.51 616.36,175.03 616.81,174.96 				"/>
			</g>
			<g>
				<polygon class="st3" points="616.36,175.51 593.57,163.11 593.57,162.63 616.36,175.03 				"/>
			</g>
			<g>
				<polygon class="st3" points="527.36,427.64 504.57,415.24 460.15,373.47 482.94,385.86 				"/>
			</g>
			<g>
				<polygon class="st3" points="482.94,385.86 460.15,373.47 460.24,325.43 483.03,337.83 				"/>
			</g>
			<g>
				<polygon class="st1" points="527.89,139.44 505.1,127.05 594.1,114.54 616.9,126.94 				"/>
			</g>
			<g>
				<polygon class="st4" points="483.3,193.73 460.51,181.33 505.1,127.05 527.89,139.44 				"/>
			</g>
			<g>
				<polygon class="st3" points="483.12,289.8 460.33,277.4 460.51,181.33 483.3,193.73 				"/>
			</g>
			<g>
				<polygon class="st1" points="349.62,308.56 326.82,296.16 460.33,277.4 483.12,289.8 				"/>
			</g>
			<g>
				<polygon class="st3" points="260.35,465.16 237.55,452.76 237.64,404.74 260.44,417.14 				"/>
			</g>
			<g>
				<polygon class="st1" points="260.44,417.14 237.64,404.74 282.14,398.48 304.93,410.88 				"/>
			</g>
			<g>
				<polygon class="st3" points="304.93,410.88 282.14,398.48 282.95,206.77 305.74,219.17 				"/>
			</g>
			<g>
				<polygon class="st3" points="215.84,231.8 193.04,219.4 193.13,171.36 215.93,183.76 				"/>
			</g>
			<g>
				<polygon class="st1" points="215.93,183.76 193.13,171.36 282.59,158.32 305.38,170.72 				"/>
			</g>
			<g>
				<polygon class="st2" points="616.9,126.94 616.36,175.03 572.3,181.22 528.24,187.89 527.54,331.57 527.89,380.02 
					572.39,373.77 572.3,421.8 527.36,427.64 482.94,385.86 483.03,337.83 349.53,356.59 349.44,404.63 304.84,458.91 
					260.35,465.16 260.44,417.14 304.93,410.88 305.74,219.17 260.79,225 215.84,231.8 215.93,183.76 305.38,170.72 349.8,212.49 
					349.62,308.56 483.12,289.8 483.3,193.73 527.89,139.44 				"/>
			</g>
		</g>
	</g>
</g>
</svg>
